<svg xmlns="http://www.w3.org/2000/svg" width="10.36" height="18.62" viewBox="0 0 10.36 18.62"><defs><style>.a{fill:#00a7e1;}</style></defs><title>Asset 2</title><path class="a" d="M6.26,6a1.92,1.92,0,0,1-1.08.19A1.92,1.92,0,0,0,6.26,6a2.64,2.64,0,0,0,.41-.25A3.43,3.43,0,0,0,7,5.44a3.17,3.17,0,0,0,.3-.37,3.07,3.07,0,0,0,.24-.41,2.73,2.73,0,0,0,.18-.46,3.77,3.77,0,0,0,.12-.49,3.68,3.68,0,0,0,0-.85,3.75,3.75,0,0,0-.08-.51,3.45,3.45,0,0,0-.14-.48A3.23,3.23,0,0,0,7.19,1,2.83,2.83,0,0,0,6.46.37a2.53,2.53,0,0,0-.8-.32,2.37,2.37,0,0,0-.8,0,2.48,2.48,0,0,0-.78.24,2.7,2.7,0,0,0-.65.46,2.83,2.83,0,0,0-.31.34,2.9,2.9,0,0,0-.26.4,3.08,3.08,0,0,0-.2.44,3,3,0,0,0-.14.48,3.71,3.71,0,0,0-.08.78,3.45,3.45,0,0,0,0,.52,3.58,3.58,0,0,0,.11.49A3.34,3.34,0,0,0,3,5.05,2.76,2.76,0,0,0,4.49,6.17a2.39,2.39,0,0,0,.89.09,2.21,2.21,0,0,0,.49-.09l.14,0Z"/><path class="a" d="M10.36,15.64V16c0,.1,0,.21,0,.32s0,.31,0,.47,0,.29,0,.47-.19.4-.52.6c-1.25.7-4.31,1-6.85.66C1.15,18.24.11,17.75.07,17.24c0,0,0-.06,0-.08v-.08s0-.1,0-.15v-.08c0-.16,0-.39,0-.4s0-.21,0-.31a.2.2,0,0,0,0-.08v-.41c0-.56,0-1.08,0-1.15s0-.39,0-.56c.06-.69.06-.69.11-1.07s.18-1,.18-1l.1-.49c.08-.27.17-.64.25-.91s.24-.7.31-.87.23-.55.33-.78.14-.27.19-.38c.2-.38.41-.69.41-.7l.22-.33.45-.57c-.28.33.27.67,1.39.82a6.84,6.84,0,0,0,3.5-.34c.28-.16.34-.33.2-.49a11.17,11.17,0,0,1,2.17,4.55,9.38,9.38,0,0,1,.2,1c.08.44.13.81.16,1A20.42,20.42,0,0,1,10.36,15.64Z"/></svg>