<svg xmlns="http://www.w3.org/2000/svg" width="28.36" height="28.36" viewBox="0 0 28.36 28.36"><defs><style>.a{fill:#00a7e1;}</style></defs><title>Asset 4</title><path class="a" d="M14.18,3.45A10.73,10.73,0,1,0,24.91,14.18,10.73,10.73,0,0,0,14.18,3.45Zm0,20.3a9.57,9.57,0,1,1,9.57-9.57A9.58,9.58,0,0,1,14.18,23.75Z"/><path class="a" d="M14.18,8a6.15,6.15,0,1,0,6.15,6.15A6.15,6.15,0,0,0,14.18,8Zm0,11a4.87,4.87,0,1,1,4.87-4.87A4.88,4.88,0,0,1,14.18,19Z"/><rect class="a" x="13.54" width="1.28" height="28.36"/><rect class="a" y="13.54" width="28.36" height="1.28"/></svg>