<svg xmlns="http://www.w3.org/2000/svg" width="13.78" height="22.65" viewBox="0 0 13.78 22.65"><defs><style>.a{fill:#00a7e1;}</style></defs><title>Asset 5</title><path class="a" d="M6.89,0A6.89,6.89,0,0,0,0,6.89c0,2.93,4.42,8.54,4.42,10.57h5c0-2,4.41-7.65,4.41-10.57A6.89,6.89,0,0,0,6.89,0ZM8.47,16.36H5.32a23.7,23.7,0,0,0-1.85-3.83C2.41,10.6,1.1,8.21,1.1,6.89a5.79,5.79,0,0,1,11.59,0c0,1.32-1.32,3.74-2.39,5.69A24.32,24.32,0,0,0,8.47,16.36Z"/><path class="a" d="M6.89,9.48c-2.49,0-2.82-2.19-2.82.29a54.28,54.28,0,0,0,2.14,7.69H7.59A54.39,54.39,0,0,0,9.71,9.78C9.71,7.29,9.38,9.48,6.89,9.48Zm0,6.64c-.52-1.59-1.37-4.53-1.64-5.82a4.74,4.74,0,0,0,1.64.28,4.79,4.79,0,0,0,1.64-.28C8.26,11.59,7.41,14.55,6.9,16.12Z"/><path class="a" d="M4.48,20.24v.62A1.19,1.19,0,0,0,5.67,22h.52a.35.35,0,0,0,0,.1c0,.27.33.5.73.5s.73-.22.73-.5a.4.4,0,0,0,0-.1h.52A1.19,1.19,0,0,0,9.3,20.86v-.62Z"/><polygon class="a" points="9.3 19.67 9.3 18.99 9.3 18.39 4.48 18.39 4.48 18.99 4.48 19.67 9.3 19.67"/></svg>